<svg width="57" height="113" viewBox="0 0 57 113" fill="none" xmlns="http://www.w3.org/2000/svg">
<rect x="57" y="39" width="14" height="14" transform="rotate(90 57 39)" fill="white"/>
<rect x="42" y="53" width="14" height="14" transform="rotate(90 42 53)" fill="white"/>
<rect x="28" y="53" width="14" height="14" transform="rotate(90 28 53)" fill="white"/>
<rect x="14" y="53" width="14" height="14" transform="rotate(90 14 53)" fill="white"/>
<rect x="14" y="99" width="14" height="14" transform="rotate(90 14 99)" fill="white"/>
<rect x="14" y="64" width="14" height="14" transform="rotate(90 14 64)" fill="white"/>
<rect x="14" y="78" width="14" height="14" transform="rotate(90 14 78)" fill="white"/>
<rect x="57" y="38.9844" width="14.0606" height="9.74704" transform="rotate(-180 57 38.9844)" fill="white"/>
<rect x="57" y="29.2422" width="14.0606" height="9.74704" transform="rotate(-180 57 29.2422)" fill="white"/>
<rect x="14.0605" y="29.2344" width="14.0606" height="9.74704" transform="rotate(-180 14.0605 29.2344)" fill="white"/>
<rect x="57" y="19.4922" width="14.0606" height="9.74704" transform="rotate(-180 57 19.4922)" fill="white"/>
<rect x="14.0605" y="19.4922" width="14.0606" height="9.74704" transform="rotate(-180 14.0605 19.4922)" fill="white"/>
<rect x="57" y="14" width="20" height="14" transform="rotate(-180 57 14)" fill="white"/>
<rect x="14.0605" y="9.74219" width="14.0606" height="9.74704" transform="rotate(-180 14.0605 9.74219)" fill="white"/>
<rect x="42" y="14" width="14" height="14" transform="rotate(-180 42 14)" fill="white"/>
<rect x="56" y="53" width="14" height="14" transform="rotate(90 56 53)" fill="white"/>
<rect x="28" y="14" width="14" height="14" transform="rotate(-180 28 14)" fill="white"/>
<rect x="57" y="53" width="14" height="14" transform="rotate(90 57 53)" fill="white"/>
</svg>
